<svg width="78" height="78" viewBox="0 0 78 78" fill="none" xmlns="http://www.w3.org/2000/svg">
<path d="M28.6689 56.2341C25.2428 56.2341 22.7136 56.1737 20.3853 56.1152C18.408 56.0684 16.575 56.0235 14.4515 56.0235C11.1187 56.0199 7.92343 54.6945 5.56663 52.338C3.20983 49.9816 1.88393 46.7866 1.8798 43.4538C1.8719 41.4082 2.36698 39.3919 3.32147 37.5826C4.27595 35.7732 5.66057 34.2263 7.35345 33.0778C7.07153 31.7061 6.92975 30.3092 6.9303 28.9087C6.9303 17.5168 16.1987 8.2485 27.5925 8.2485C35.2209 8.2485 42.2078 12.4683 45.7899 19.1178C46.9569 17.9225 48.352 16.9737 49.8925 16.3276C51.4329 15.6814 53.0875 15.3511 54.7579 15.3562C56.6676 15.3581 58.5518 15.7944 60.2678 16.6323C61.9838 17.4701 63.4866 18.6875 64.6625 20.1921C65.8384 21.6968 66.6564 23.4493 67.0546 25.317C67.4529 27.1846 67.4209 29.1184 66.9611 30.9719C69.5984 31.7157 71.9206 33.3006 73.5746 35.4854C75.2285 37.6701 76.1238 40.3353 76.1241 43.0755C76.1205 46.4088 74.7949 49.6045 72.4381 51.9617C70.0813 54.3189 66.8857 55.645 63.5524 55.6491C60.3135 55.6491 58.0398 55.6745 55.7934 55.6959C53.5977 55.7193 51.4273 55.7427 48.4146 55.7427C48.156 55.7427 47.908 55.64 47.7252 55.4571C47.5423 55.2743 47.4396 55.0263 47.4396 54.7677C47.4396 54.5091 47.5423 54.2611 47.7252 54.0783C47.908 53.8954 48.156 53.7927 48.4146 53.7927C51.4195 53.7927 53.5821 53.7693 55.7719 53.7459C58.0242 53.7225 60.3057 53.6991 63.5524 53.6991C66.198 53.7024 68.7496 52.7184 70.7079 50.9395C72.6661 49.1606 73.89 46.715 74.14 44.0812C74.39 41.4475 73.6481 38.8152 72.0596 36.6997C70.471 34.5841 68.1502 33.1375 65.5512 32.643C65.4141 32.6167 65.2843 32.5614 65.1704 32.4806C65.0566 32.3998 64.9614 32.2956 64.8914 32.1748C64.8213 32.0541 64.778 31.9198 64.7643 31.7808C64.7506 31.6419 64.7669 31.5017 64.8122 31.3697C65.3581 29.7699 65.5148 28.063 65.2691 26.3906C65.0235 24.7182 64.3825 23.1284 63.3995 21.7533C62.4166 20.3781 61.1198 19.2572 59.6169 18.4834C58.114 17.7097 56.4483 17.3055 54.7579 17.3043C53.1292 17.2993 51.5215 17.6716 50.0606 18.3918C48.5998 19.1121 47.3256 20.1608 46.3379 21.4559C46.2355 21.5903 46.0998 21.6957 45.9443 21.7616C45.7887 21.8276 45.6187 21.8518 45.4509 21.8319C45.2831 21.812 45.1234 21.7487 44.9876 21.6482C44.8518 21.5477 44.7445 21.4135 44.6764 21.2589C43.1957 17.9665 40.7963 15.1714 37.7664 13.2088C34.7364 11.2462 31.2045 10.1997 27.5945 10.1946C17.277 10.1946 8.88225 18.5874 8.88225 28.9049C8.88225 30.3869 9.05775 31.865 9.4029 33.2963C9.45147 33.4974 9.43475 33.7089 9.35518 33.8999C9.2756 34.091 9.13728 34.2518 8.96025 34.359C7.39035 35.2993 6.09206 36.6319 5.19291 38.2257C4.29377 39.8196 3.82468 41.6199 3.83175 43.4499C3.83536 46.2657 4.95565 48.965 6.94687 50.9559C8.93809 52.9467 11.6377 54.0665 14.4534 54.0696C16.5945 54.0696 18.4412 54.1125 20.4341 54.1632C22.7507 54.2178 25.2642 54.2802 28.6709 54.2802C28.93 54.2805 29.1783 54.3836 29.3614 54.567C29.5444 54.7504 29.6471 54.999 29.6468 55.2581C29.6466 55.5172 29.5434 55.7656 29.36 55.9486C29.1766 56.1317 28.928 56.2344 28.6689 56.2341Z" fill="white"/>
<path d="M51.3825 43.7892C51.1301 43.7892 50.8876 43.6913 50.7059 43.5162L37.4907 30.7729L24.336 43.4635C24.1496 43.643 23.8995 43.7411 23.6407 43.7361C23.382 43.7312 23.1358 43.6237 22.9564 43.4372C22.7769 43.2508 22.6789 43.0007 22.6838 42.742C22.6887 42.4832 22.7963 42.2371 22.9827 42.0576L36.8141 28.7176C36.9955 28.5422 37.2379 28.444 37.4903 28.4437C37.7427 28.4433 37.9854 28.5408 38.1674 28.7157L52.0572 42.1102C52.1977 42.2449 52.2947 42.4185 52.3357 42.6088C52.3767 42.799 52.3599 42.9972 52.2873 43.1778C52.2147 43.3583 52.0898 43.5131 51.9285 43.622C51.7673 43.731 51.5771 43.7892 51.3825 43.7892Z" fill="white"/>
<path d="M37.4907 69.7496C37.2321 69.7496 36.9841 69.6468 36.8013 69.464C36.6184 69.2811 36.5157 69.0331 36.5157 68.7745V29.4197C36.5157 29.1611 36.6184 28.9131 36.8013 28.7302C36.9841 28.5474 37.2321 28.4447 37.4907 28.4447C37.7493 28.4447 37.9973 28.5474 38.1801 28.7302C38.363 28.9131 38.4657 29.1611 38.4657 29.4197V68.7765C38.4652 69.0347 38.3622 69.2822 38.1794 69.4647C37.9967 69.6471 37.7489 69.7496 37.4907 69.7496Z" fill="white"/>
</svg>
